 <svg version="1.0" xmlns="http://www.w3.org/2000/svg" width="700.000000pt" height="518.000000pt" viewBox="0 0 700.000000 518.000000" preserveAspectRatio="xMidYMid meet">
<metadata>
Created by potrace 1.12, written by Peter Selinger 2001-2015
</metadata>
<g transform="translate(0.000000,518.000000) scale(0.100000,-0.100000)" fill="#000000" stroke="none">
<path d="M444 4944 c-121 -18 -158 -45 -209 -154 -38 -81 -45 -103 -45 -149 0
-50 10 -66 45 -73 17 -3 20 -10 17 -54 -5 -68 21 -140 70 -200 66 -80 100
-133 160 -253 38 -75 69 -124 92 -143 19 -15 45 -45 57 -66 13 -20 26 -39 29
-42 7 -5 65 -106 80 -140 15 -32 40 -119 40 -139 0 -24 27 -135 41 -166 26
-61 33 -87 40 -155 10 -96 38 -221 70 -310 63 -181 88 -219 174 -264 132 -69
181 -80 465 -106 69 -6 158 -14 199 -18 41 -4 76 -12 78 -18 2 -6 -31 -28 -74
-50 -43 -21 -82 -42 -88 -47 -5 -4 -46 -33 -90 -64 -73 -51 -189 -145 -225
-183 -67 -69 -190 -222 -190 -236 0 -4 -10 -21 -23 -38 -24 -32 -94 -170 -122
-240 -19 -48 -19 -105 -1 -165 29 -91 36 -148 34 -257 -2 -109 -2 -113 27
-153 16 -23 47 -54 69 -69 21 -15 52 -40 68 -56 26 -26 28 -33 28 -114 0 -88
22 -181 50 -214 12 -15 31 -18 97 -18 l82 0 43 -42 c24 -24 62 -79 84 -123 25
-49 50 -85 65 -92 13 -7 54 -13 91 -13 37 0 80 -5 95 -12 35 -15 102 -66 126
-95 24 -30 41 -29 83 3 30 23 39 25 72 18 51 -11 275 -10 342 2 30 6 69 18 86
27 62 32 179 169 293 342 65 100 70 108 77 128 3 9 10 17 14 17 5 0 12 10 16
22 3 12 21 44 39 72 18 28 54 92 80 141 27 50 67 126 91 170 54 100 240 474
248 498 19 59 42 -39 56 -244 14 -196 38 -442 45 -461 12 -32 25 -19 26 25 0
23 4 89 10 147 5 58 13 168 19 245 10 154 29 283 41 290 4 3 22 -25 39 -62 18
-38 36 -75 41 -83 5 -8 12 -22 15 -30 8 -19 62 -129 74 -152 6 -10 14 -26 20
-35 5 -10 25 -49 45 -88 20 -38 45 -86 57 -105 11 -19 40 -72 64 -117 24 -45
59 -106 77 -135 19 -29 37 -63 41 -75 4 -13 11 -23 14 -23 4 0 16 -17 27 -37
11 -21 22 -40 25 -43 3 -3 21 -30 40 -60 98 -156 241 -323 303 -353 18 -8 53
-20 80 -26 63 -15 312 -14 353 1 27 10 35 9 49 -6 10 -10 29 -24 42 -33 23
-15 25 -14 78 36 70 66 128 91 211 91 36 0 74 5 85 11 11 5 33 37 48 69 32 65
69 129 86 146 28 29 77 44 143 44 75 0 85 6 116 67 11 23 16 59 16 128 0 116
10 140 84 194 94 70 136 154 115 235 -6 25 -9 62 -6 83 13 97 28 176 37 193 6
10 10 42 10 70 0 42 -10 73 -56 168 -31 64 -67 131 -80 149 -13 17 -24 34 -24
38 0 34 -229 277 -335 356 -33 24 -71 54 -85 67 -14 12 -29 22 -33 22 -5 0
-23 11 -40 24 -18 12 -64 38 -104 57 -40 19 -72 39 -73 45 0 14 119 34 202 34
35 0 108 7 162 15 55 8 113 15 129 15 57 0 232 69 294 116 18 14 45 45 60 71
60 103 143 411 143 532 0 22 4 42 9 45 15 10 42 107 70 251 11 57 32 114 58
157 13 21 23 40 23 42 0 14 69 107 109 146 30 31 65 85 107 170 35 69 85 153
113 187 91 113 100 132 103 223 l3 82 35 12 c43 13 48 37 25 104 -45 125 -80
180 -148 232 -57 43 -303 43 -467 0 -102 -27 -156 -43 -172 -51 -10 -5 -28 -9
-41 -9 -13 0 -32 -7 -43 -15 -10 -8 -28 -15 -39 -15 -12 0 -25 -4 -30 -8 -6
-5 -32 -17 -60 -27 -27 -9 -66 -24 -85 -33 -109 -46 -271 -121 -290 -132 -8
-5 -35 -19 -60 -31 -25 -12 -47 -25 -50 -29 -3 -3 -14 -10 -25 -15 -19 -8 -19
-8 -1 -12 10 -3 23 0 29 6 14 14 44 14 52 1 10 -17 -23 -66 -80 -119 -61 -55
-99 -66 -108 -30 -8 32 7 63 50 98 26 22 32 31 20 31 -15 0 -44 -14 -112 -57
-11 -7 -34 -20 -52 -29 -18 -9 -37 -22 -44 -30 -6 -8 -15 -14 -20 -14 -10 0
-95 -57 -129 -87 -13 -13 -29 -23 -35 -23 -6 0 -21 -10 -35 -23 -14 -12 -61
-51 -105 -87 -119 -96 -511 -491 -660 -665 -33 -38 -69 -79 -81 -90 -11 -11
-53 -60 -94 -110 -41 -49 -77 -92 -80 -95 -3 -3 -21 -25 -40 -50 -19 -25 -41
-51 -48 -59 -7 -8 -39 -46 -70 -85 -31 -39 -62 -77 -69 -84 -7 -7 -19 -23 -28
-34 -20 -30 -29 -16 -26 42 1 29 -4 61 -14 79 -8 17 -15 39 -15 50 0 32 -20
35 -49 7 -35 -34 -54 -96 -46 -147 11 -67 5 -61 -160 141 -147 181 -245 299
-265 320 -8 8 -49 54 -90 100 -122 138 -185 204 -370 390 -193 193 -333 317
-455 403 -44 31 -84 60 -90 64 -17 14 -99 67 -120 79 -11 6 -38 21 -60 33 -22
12 -53 31 -70 41 -57 35 -68 23 -20 -23 45 -44 55 -73 33 -95 -19 -19 -30 -15
-88 28 -54 40 -82 75 -95 118 -5 18 -3 22 17 22 13 0 29 -5 35 -11 6 -6 19 -9
29 -7 23 5 21 6 -163 96 -202 100 -227 112 -244 112 -8 0 -19 4 -25 10 -11 11
-107 47 -239 91 -185 60 -260 78 -375 89 -52 6 -104 11 -115 13 -11 2 -57 -2
-101 -9z m6184 -50 c-4 -35 -19 -40 -36 -13 -11 18 -11 24 4 40 22 24 37 12
32 -27z m-6150 0 c3 -22 -21 -39 -39 -28 -11 6 -12 38 -2 48 13 13 38 1 41
-20z m122 6 c13 -25 5 -40 -21 -40 -13 0 -19 7 -19 23 0 41 22 50 40 17z
m5905 -10 c0 -29 -32 -41 -41 -16 -9 24 4 48 23 44 12 -2 18 -12 18 -28z
m-6131 -79 c20 -22 13 -44 -21 -66 -23 -15 -27 -15 -41 -1 -12 12 -13 18 -3
30 7 9 11 22 8 30 -12 31 31 36 57 7z m6383 -23 c-2 -49 -21 -59 -55 -30 -38
33 -22 72 29 72 26 0 27 -3 26 -42z m-249 -10 c7 -7 12 -27 12 -44 0 -23 5
-34 19 -39 27 -8 34 -35 15 -56 -21 -23 -50 -24 -100 -3 -52 22 -65 40 -50 74
29 68 75 97 104 68z m-5863 -38 c36 -58 33 -76 -19 -101 -25 -12 -59 -19 -78
-17 -29 3 -33 7 -36 36 -3 27 1 35 17 39 16 4 21 13 21 37 0 40 6 46 42 46 22
0 33 -9 53 -40z m306 -27 c67 -21 172 -83 222 -131 70 -68 49 -78 -129 -57
-146 16 -192 30 -237 70 -30 26 -31 28 -12 41 10 8 34 14 52 14 34 0 43 16 22
37 -14 14 -5 43 15 43 7 0 38 -8 67 -17z m5258 1 c2 -2 -4 -15 -13 -28 -22
-35 -21 -36 22 -36 82 0 83 -42 2 -82 -42 -20 -85 -30 -180 -42 -200 -24 -225
-6 -114 82 115 91 245 140 283 106z m-5835 -107 c21 -15 14 -57 -14 -82 -25
-23 -36 -14 -44 36 -9 55 17 76 58 46z m6378 -27 c-1 -19 -10 -42 -18 -50 -13
-13 -17 -12 -34 10 -22 29 -26 66 -7 74 6 2 23 4 37 3 22 -2 25 -6 22 -37z
m-5259 -44 c21 -10 45 -32 53 -47 13 -26 13 -32 -1 -59 -13 -25 -21 -30 -53
-30 -29 0 -45 7 -64 28 -33 36 -81 119 -74 130 8 13 95 -1 139 -22z m4217 9
c0 -19 -36 -84 -63 -112 -29 -33 -15 -39 50 -20 64 17 87 11 131 -36 47 -50
-7 -106 -112 -114 -57 -5 -65 -3 -85 18 -28 30 -37 67 -22 90 16 27 15 29 -27
29 -48 0 -62 14 -62 61 0 29 6 43 26 58 15 12 35 21 45 21 10 0 21 5 24 10 3
6 26 10 51 10 32 0 44 -4 44 -15z m-5286 -117 c8 -14 7 -24 -6 -45 -19 -32
-48 -43 -48 -19 0 9 -5 25 -12 35 -6 10 -8 26 -5 35 9 22 56 18 71 -6z m6291
12 c10 -15 -14 -90 -29 -90 -26 0 -56 65 -41 89 8 14 62 14 70 1z m-5332 -27
c86 -24 104 -51 72 -113 -27 -53 -148 -53 -204 -1 -28 26 -30 32 -20 59 9 27
57 69 82 71 4 1 35 -7 70 -16z m-772 -16 c56 -38 47 -87 -24 -124 -37 -18 -67
-9 -67 22 0 13 5 27 11 31 6 4 9 19 5 37 -6 31 7 57 29 57 7 0 27 -10 46 -23z
m5917 14 c9 -5 11 -19 7 -43 -4 -22 -3 -38 4 -42 16 -10 14 -41 -4 -56 -19
-15 -48 -5 -91 32 -38 34 -41 44 -16 74 33 39 72 53 100 35z m-5525 -21 c7 -6
-20 -26 -85 -61 -29 -15 -88 -11 -88 5 0 8 5 18 10 21 8 5 7 11 -1 21 -12 15
-6 19 41 28 32 5 113 -3 123 -14z m5197 14 c24 -5 31 -11 27 -25 -3 -11 -1
-22 4 -25 23 -14 8 -34 -25 -34 -39 0 -136 47 -136 66 0 20 71 29 130 18z
m455 -114 c8 -13 -3 -50 -15 -50 -13 0 -32 39 -25 50 8 13 32 13 40 0z m-6201
-9 c10 -16 -6 -42 -23 -39 -9 2 -17 13 -19 26 -3 16 2 22 17 22 11 0 22 -4 25
-9z m1703 -118 c99 -70 147 -137 113 -158 -27 -17 -188 111 -237 188 -47 75
-14 67 124 -30z m-983 51 c30 -30 30 -35 13 -86 -23 -66 -80 -107 -151 -110
-41 -1 -60 17 -101 99 -30 58 -27 72 21 103 22 14 49 19 110 19 75 1 83 -1
108 -25z m3886 21 c0 -47 -202 -239 -244 -233 -57 8 -6 89 101 160 38 25 79
52 93 61 25 16 50 22 50 12z m1050 -10 c50 -26 50 -72 -2 -157 -34 -55 -42
-59 -100 -47 -49 11 -97 49 -122 97 -23 44 -20 68 11 97 25 22 36 25 106 25
50 0 88 -5 107 -15z m458 -59 c3 -22 0 -27 -14 -24 -27 5 -42 36 -24 48 22 14
35 7 38 -24z m-6023 14 c7 -11 -12 -50 -24 -50 -11 0 -31 46 -24 54 10 9 41 7
48 -4z m1406 -8 c96 -36 156 -95 129 -127 -29 -35 -101 -12 -161 52 -82 86
-70 114 32 75z m3249 2 c0 -60 -107 -148 -173 -142 -27 3 -32 7 -35 33 -3 27
3 34 44 60 87 55 164 78 164 49z m1196 -12 c6 -4 12 -28 13 -54 1 -42 -1 -48
-19 -48 -22 0 -70 41 -70 60 0 14 37 50 53 50 6 0 17 -4 23 -8z m-5663 -16 c9
-7 17 -20 17 -29 0 -18 -51 -57 -74 -57 -22 0 -31 27 -16 45 7 8 10 21 7 29
-3 8 -3 17 0 20 11 10 47 6 66 -8z m1008 -30 c98 -17 184 -64 192 -104 7 -37
2 -42 -43 -42 -36 0 -39 -2 -37 -27 2 -27 0 -28 -38 -26 -83 5 -146 33 -207
93 -47 45 -58 62 -58 88 l0 32 58 0 c31 0 91 -6 133 -14z m3779 -9 c0 -38 -26
-79 -75 -120 -45 -38 -59 -45 -163 -73 -63 -17 -76 -12 -68 28 5 27 4 29 -22
28 -68 -5 -81 14 -42 62 24 32 120 78 163 79 17 1 43 5 57 9 14 4 53 8 88 9
59 1 62 0 62 -22z m-4904 -62 c7 -17 -12 -45 -31 -45 -16 0 -26 25 -19 45 8
19 43 19 50 0z m5882 -12 c-4 -34 -23 -41 -38 -13 -13 25 -6 40 21 40 16 0 20
-6 17 -27z m-5532 -107 c53 -52 52 -60 -22 -125 -53 -47 -96 -54 -114 -20 -9
16 -7 28 9 60 20 37 20 41 5 65 -16 23 -15 26 1 44 30 33 69 25 121 -24z
m5261 25 c9 -14 8 -25 -3 -47 -14 -26 -13 -30 6 -56 27 -36 25 -62 -5 -78 -22
-12 -29 -11 -60 6 -20 10 -52 35 -71 55 -42 43 -39 57 23 108 44 36 92 41 110
12z m207 -34 c-8 -42 -12 -47 -31 -47 -19 0 -42 28 -43 52 0 26 39 49 62 37
15 -8 18 -17 12 -42z m-5735 29 c24 -29 -16 -97 -45 -78 -17 11 -24 68 -11 81
15 15 42 14 56 -3z m1035 -54 c27 -13 71 -41 99 -65 52 -43 132 -157 119 -168
-4 -3 -38 -11 -77 -17 -79 -12 -343 6 -451 31 -162 37 -235 119 -171 191 35
41 117 56 287 53 125 -3 152 -6 194 -25z m3976 17 c107 -25 145 -67 119 -135
-34 -86 -259 -142 -553 -137 -179 4 -191 20 -91 131 59 66 125 112 190 133 59
20 264 25 335 8z m-3722 -57 c9 -5 28 -15 42 -22 14 -7 59 -15 100 -17 74 -4
176 -27 195 -44 5 -5 17 -9 27 -9 10 0 26 -4 36 -9 9 -5 46 -24 81 -41 156
-78 352 -257 648 -595 112 -128 227 -285 208 -285 -2 0 -28 11 -57 24 -29 14
-80 37 -113 52 -125 55 -399 197 -426 220 -8 8 -19 14 -23 14 -11 0 -205 128
-302 201 -110 81 -264 232 -354 347 -57 73 -110 153 -110 167 0 8 29 6 48 -3z
m3141 -14 c-6 -12 -16 -27 -21 -32 -4 -6 -37 -51 -72 -101 -66 -93 -281 -314
-351 -361 -22 -15 -42 -29 -45 -33 -10 -12 -157 -109 -275 -181 -177 -108
-548 -290 -591 -290 -7 0 -10 8 -8 18 5 18 127 174 198 253 22 25 61 70 85
100 72 87 309 319 401 393 144 115 361 205 494 207 54 0 82 6 116 24 25 12 53
23 63 24 15 1 16 -2 6 -21z m-4354 -48 c8 -26 -1 -40 -26 -40 -14 0 -19 7 -19
30 0 23 5 30 19 30 11 0 22 -9 26 -20z m5568 14 c9 -10 -15 -54 -30 -54 -8 0
-13 12 -13 30 0 22 5 30 18 30 10 0 21 -3 25 -6z m-5485 -140 c12 -8 22 -19
22 -24 0 -8 -56 -40 -70 -40 -14 0 -21 52 -9 66 15 18 29 18 57 -2z m253 1
c40 -21 69 -47 69 -61 0 -23 -116 -94 -153 -94 -8 0 -25 8 -38 19 l-22 18 22
31 c18 26 20 34 9 51 -28 45 49 69 113 36z m4953 9 c19 -7 21 -35 4 -52 -9 -9
-7 -18 8 -39 24 -33 21 -60 -7 -68 -29 -9 -62 1 -116 35 -75 48 -76 58 -8 103
38 26 85 34 119 21z m214 -28 c5 -40 -10 -52 -47 -36 -35 14 -41 43 -13 59 30
19 57 9 60 -23z m-4583 -57 c50 -5 140 -13 200 -18 72 -5 123 -14 145 -26 44
-22 206 -180 227 -219 14 -26 14 -31 0 -41 -46 -34 -473 -59 -772 -45 -104 5
-200 9 -211 10 -27 0 -71 44 -90 88 -25 61 -12 168 24 205 45 45 284 68 477
46z m4092 -15 c67 -14 89 -40 97 -118 8 -77 -4 -128 -38 -171 -23 -29 -27 -30
-157 -42 -183 -16 -449 -16 -659 2 -146 12 -240 27 -240 39 0 11 33 66 40 66
4 0 34 30 65 68 32 37 75 79 95 94 46 34 135 58 220 59 36 0 83 4 105 9 49 10
414 6 472 -6z m431 -73 c3 -29 1 -32 -20 -29 -26 3 -35 32 -17 54 18 22 34 12
37 -25z m-5318 14 c10 -11 9 -18 -3 -30 -24 -23 -37 -18 -37 15 0 33 19 40 40
15z m219 -143 c5 -10 12 -34 16 -54 6 -31 4 -37 -15 -43 -28 -9 -107 21 -120
45 -10 19 -1 31 33 43 9 4 17 13 17 21 0 32 50 23 69 -12z m4901 13 c5 -14 15
-25 22 -25 45 -1 44 -41 -3 -65 -33 -17 -95 -20 -104 -4 -11 16 3 55 31 88 31
38 42 39 54 6z m-5063 -41 c8 -21 -17 -65 -36 -62 -15 3 -34 55 -25 70 9 14
54 9 61 -8z m5223 6 c12 -7 12 -12 2 -22 -6 -6 -12 -20 -12 -31 0 -26 -31 -18
-47 13 -20 39 17 66 57 40z m-5129 -179 c37 -37 37 -53 -2 -85 -41 -35 -76
-43 -97 -23 -14 15 -14 20 -1 43 8 15 13 36 11 46 -4 25 15 48 40 48 11 0 33
-13 49 -29z m1586 -67 c103 -52 194 -101 203 -107 8 -7 35 -23 60 -35 25 -13
59 -32 75 -42 17 -11 37 -23 45 -27 8 -3 40 -22 70 -42 63 -40 78 -49 139 -83
25 -13 46 -29 48 -34 7 -20 -49 -34 -170 -44 -67 -5 -151 -12 -187 -15 -79 -7
-407 9 -510 25 -87 14 -188 39 -280 70 -36 12 -78 26 -95 31 -16 6 -68 13
-115 16 -88 6 -165 -2 -465 -48 -109 -16 -147 -8 -200 45 -49 50 -61 92 -50
185 10 86 33 109 125 127 41 8 111 14 155 14 44 0 107 5 140 10 33 6 132 15
220 21 88 6 203 15 255 18 52 4 152 8 222 9 l127 2 188 -96z m2392 75 c30 -5
98 -9 150 -9 53 -1 130 -5 171 -11 41 -5 122 -12 180 -14 58 -3 145 -11 193
-17 78 -11 92 -16 112 -40 27 -32 45 -87 45 -138 0 -49 -42 -133 -79 -159 -40
-29 -126 -37 -206 -21 -33 7 -91 16 -130 21 -38 4 -113 12 -165 19 -139 16
-262 -2 -405 -60 -141 -57 -478 -97 -725 -86 -138 7 -285 21 -322 32 -33 10
-22 52 20 74 20 11 49 28 64 38 54 35 173 107 183 111 5 2 28 16 50 30 22 14
56 33 75 43 19 10 55 30 80 44 50 29 287 149 310 157 22 8 335 -3 399 -14z
m1078 9 c4 -7 8 -26 9 -43 1 -16 5 -42 9 -56 13 -49 -56 -47 -105 3 -26 25
-28 32 -18 51 26 50 86 75 105 45z m-5059 -284 c3 -23 -34 -62 -47 -48 -12 13
-22 60 -14 68 15 15 58 1 61 -20z m5036 17 c10 -16 -6 -71 -20 -71 -16 0 -47
56 -39 70 8 13 52 13 59 1z m-4922 -136 c24 -42 12 -57 -40 -49 -33 5 -42 11
-42 27 0 26 29 59 49 55 8 -2 23 -17 33 -33z m4828 3 c19 -34 7 -47 -45 -51
-47 -2 -57 18 -28 58 23 31 53 29 73 -7z m-2685 -272 c37 -24 70 -116 48 -129
-22 -13 -78 9 -114 43 -40 38 -50 75 -26 99 14 14 60 8 92 -13z m556 4 c29
-16 23 -54 -15 -93 -34 -35 -96 -63 -121 -54 -10 4 -11 15 -6 39 14 62 45 98
96 111 11 2 21 5 23 6 2 0 12 -4 23 -9z m-854 -28 c77 -7 85 -10 113 -40 16
-18 30 -35 30 -36 0 -8 -92 -26 -130 -26 -22 0 -82 -7 -133 -15 -50 -8 -160
-16 -243 -17 -133 -3 -154 -1 -171 15 -11 9 -24 17 -29 17 -17 0 -95 72 -91
84 6 18 486 32 654 18z m1620 -10 c50 -4 95 -10 99 -15 10 -10 -56 -65 -120
-99 -35 -19 -66 -28 -101 -28 -94 0 -561 53 -574 66 -7 6 31 45 64 65 27 17
53 19 285 18 140 0 296 -4 347 -7z m-2606 -37 c110 -25 136 -65 42 -65 -15 0
-24 -2 -22 -5 3 -2 58 -7 122 -10 120 -5 185 -22 221 -55 18 -18 17 -19 -24
-49 -24 -17 -51 -31 -61 -31 -9 0 -30 -6 -46 -14 -43 -23 -100 -46 -110 -46
-5 0 -33 -11 -61 -25 -29 -14 -58 -25 -66 -25 -17 0 -222 -83 -267 -108 -19
-10 -60 -33 -91 -51 -74 -42 -99 -39 -116 14 -27 81 9 201 76 253 46 34 71 46
147 67 33 10 77 23 98 31 20 8 51 14 67 14 17 0 30 5 30 10 0 6 -21 10 -46 10
-25 0 -54 5 -65 10 -23 13 -25 38 -4 46 8 4 15 14 15 23 0 10 3 21 7 25 8 8
71 0 154 -19z m3189 3 c0 -6 10 -22 21 -35 34 -35 12 -53 -67 -53 -36 0 -64
-4 -64 -10 0 -5 13 -10 30 -10 16 0 47 -6 67 -14 21 -7 67 -22 103 -31 36 -10
83 -26 105 -35 110 -50 173 -193 131 -295 -12 -28 -20 -35 -43 -35 -16 0 -33
4 -38 9 -22 20 -225 120 -288 141 -37 13 -70 27 -73 31 -3 5 -16 9 -30 9 -13
0 -32 4 -42 10 -9 5 -78 33 -152 62 -134 52 -200 84 -200 97 0 12 63 40 125
56 32 8 94 15 137 15 79 0 111 13 58 24 -32 6 -40 23 -15 31 8 3 23 8 33 12
66 26 202 40 202 21z m-2022 -104 c16 -5 22 -14 22 -36 0 -32 -34 -73 -205
-243 -117 -116 -210 -181 -420 -290 -138 -71 -274 -145 -310 -167 -16 -10 -37
-21 -45 -25 -8 -3 -28 -15 -44 -26 -37 -26 -46 -13 -46 76 0 37 -4 67 -10 67
-5 0 -19 -17 -30 -37 -11 -21 -25 -45 -33 -54 -11 -15 -122 -81 -212 -127 -40
-21 -132 -87 -173 -126 -19 -17 -49 -61 -67 -98 -36 -72 -43 -82 -90 -128 -54
-54 -73 -50 -167 38 -57 53 -70 97 -42 140 23 35 124 121 219 186 129 88 140
96 150 104 30 23 136 92 165 107 19 10 37 21 40 25 3 4 28 18 55 31 42 19 46
24 27 27 -13 2 -28 -1 -35 -6 -14 -11 -90 -53 -203 -112 -43 -23 -83 -45 -89
-50 -22 -17 -223 -117 -248 -124 -22 -5 -27 -3 -27 13 0 10 10 37 22 60 l21
40 -28 40 c-35 52 -29 83 28 133 42 36 42 36 23 57 -14 16 -17 24 -8 33 15 15
43 2 49 -22 3 -11 7 -20 8 -20 2 0 39 18 82 39 85 43 189 91 197 91 2 0 34 14
69 30 36 17 69 30 74 30 5 0 33 11 61 25 29 14 58 25 65 25 7 0 41 11 74 24
34 13 96 27 140 31 l80 7 1 -37 c1 -31 -6 -45 -50 -91 -53 -56 -142 -120 -238
-170 -52 -27 -53 -29 -27 -32 16 -2 34 1 40 6 14 12 103 19 113 9 4 -3 18 3
33 14 14 11 51 39 81 61 96 69 124 91 166 133 37 35 42 47 49 101 8 74 34 120
77 138 68 29 269 62 448 74 69 5 130 10 135 10 6 1 20 -1 33 -4z m1072 -32
c255 -37 310 -68 324 -188 8 -70 25 -95 112 -162 177 -135 197 -147 244 -148
25 0 68 -4 95 -8 60 -10 54 -2 -30 44 -33 18 -67 38 -75 45 -8 6 -23 15 -32
18 -10 4 -18 10 -18 15 0 5 -15 17 -32 27 -37 20 -118 114 -118 137 0 29 25
39 86 32 85 -9 313 -82 449 -144 104 -47 156 -70 161 -70 3 0 41 -18 86 -40
45 -22 82 -39 83 -37 1 1 8 12 14 25 12 23 35 29 46 12 4 -6 0 -21 -8 -33 -14
-22 -13 -25 23 -54 51 -43 57 -74 27 -133 l-25 -47 24 -47 c24 -47 24 -66 1
-66 -21 0 -327 159 -358 186 -8 8 -22 14 -30 14 -8 0 -19 4 -24 9 -6 5 -45 28
-89 50 -85 44 -130 55 -86 21 14 -11 30 -20 37 -20 7 0 32 -13 55 -28 24 -16
111 -73 193 -127 83 -55 152 -102 155 -105 3 -4 28 -22 55 -40 28 -19 59 -43
70 -53 11 -11 34 -30 51 -43 17 -13 39 -42 48 -63 18 -38 18 -39 -10 -80 -36
-55 -113 -111 -152 -111 -38 0 -96 62 -141 153 -37 72 -51 91 -106 133 -40 32
-189 123 -258 158 -55 29 -112 81 -131 121 -9 19 -21 35 -26 35 -6 0 -10 -35
-10 -78 0 -43 -3 -81 -6 -85 -3 -3 -23 4 -43 17 -20 12 -43 26 -51 29 -8 4
-28 16 -45 26 -16 11 -106 58 -200 106 -184 94 -350 189 -360 205 -4 6 -23 21
-43 34 -40 26 -304 284 -329 322 -13 20 -13 27 -2 40 11 13 35 15 173 10 89
-3 190 -9 226 -14z m-924 -105 c13 -36 -69 -188 -207 -382 -52 -74 -157 -226
-174 -254 -6 -9 -42 -63 -81 -121 -94 -141 -151 -248 -324 -605 -100 -205
-159 -305 -181 -305 -9 0 -40 21 -68 46 -56 51 -62 73 -37 141 8 21 21 65 31
98 9 33 20 68 26 77 5 10 9 24 9 33 0 8 6 29 14 47 14 31 38 89 55 133 7 17
129 270 195 405 63 127 134 238 178 275 13 11 43 36 68 55 25 19 62 50 82 68
20 19 61 52 91 75 31 23 97 75 149 115 51 40 104 82 118 93 29 22 49 24 56 6z
m472 -21 c48 -36 97 -75 212 -168 36 -29 83 -66 105 -83 109 -81 211 -175 252
-232 58 -82 325 -611 346 -688 3 -11 29 -85 56 -165 29 -84 51 -163 51 -187 0
-37 -5 -46 -46 -82 -26 -23 -55 -41 -65 -41 -31 0 -67 60 -214 360 -88 179
-169 336 -207 400 -61 103 -113 183 -139 214 -14 17 -29 38 -32 46 -4 8 -45
69 -91 135 -47 66 -111 158 -143 205 -31 47 -60 87 -63 90 -3 3 -14 24 -24 48
-11 23 -25 47 -33 53 -7 6 -13 20 -13 30 0 11 -4 19 -8 19 -4 0 -13 14 -19 31
-23 60 6 65 75 15z m-2347 -176 c36 0 19 -28 -48 -78 -79 -58 -124 -82 -152
-82 -29 0 -35 17 -16 46 15 24 15 26 0 38 -16 11 -15 14 6 28 60 38 138 61
177 51 8 -1 22 -3 33 -3z m4294 -12 c22 -7 53 -21 69 -32 26 -18 27 -20 12
-32 -16 -12 -16 -14 -1 -38 35 -53 -13 -62 -90 -17 -68 40 -149 104 -147 116
3 25 75 26 157 3z m-2431 -120 c-8 -99 -31 -189 -73 -285 -17 -39 -31 -76 -31
-81 0 -6 -13 -40 -30 -75 -16 -36 -30 -69 -30 -74 0 -5 -11 -33 -25 -61 -14
-29 -25 -56 -25 -60 0 -5 -11 -32 -25 -60 -14 -29 -25 -54 -25 -57 0 -8 -95
-208 -173 -364 -53 -106 -86 -158 -124 -198 l-51 -53 -88 0 c-78 0 -91 3 -121
26 -37 28 -40 39 -17 80 8 16 30 56 48 89 17 33 65 122 105 199 40 76 98 182
128 235 31 53 61 105 67 116 46 85 158 257 231 355 18 25 59 81 89 125 31 44
69 96 86 115 16 19 33 44 36 55 7 24 33 55 46 55 5 0 6 -37 2 -82z m489 4 c10
-21 32 -53 49 -72 17 -19 41 -51 53 -70 12 -19 30 -41 39 -49 9 -7 16 -18 16
-23 0 -5 21 -37 48 -70 79 -101 109 -144 158 -228 15 -25 37 -61 49 -80 31
-48 95 -160 95 -166 0 -2 11 -21 24 -42 12 -20 45 -79 72 -130 27 -51 63 -117
79 -147 122 -220 131 -248 92 -276 -90 -64 -248 -28 -300 68 -7 12 -32 57 -57
100 -56 98 -210 413 -210 429 0 6 -46 108 -60 135 -8 15 -107 266 -132 334 -6
17 -17 44 -23 60 -30 74 -45 143 -45 211 0 68 1 73 18 63 9 -6 25 -27 35 -47z
m-2276 32 c9 -23 -13 -40 -32 -24 -8 7 -15 19 -15 26 0 19 39 18 47 -2z m4053
7 c0 -23 -14 -41 -31 -41 -19 0 -27 29 -12 43 10 10 43 8 43 -2z m-4204 -86
c4 -8 3 -22 0 -30 -8 -22 -46 -1 -46 25 0 24 38 28 46 5z m4354 -5 c0 -24 -39
-48 -50 -30 -14 22 1 50 26 50 17 0 24 -6 24 -20z m-4525 -48 c43 -36 48 -49
28 -70 -54 -56 -111 -64 -98 -13 3 14 6 37 6 50 -1 26 15 51 33 51 6 0 20 -8
31 -18z m4704 4 c6 -7 11 -24 10 -37 0 -13 3 -36 6 -50 13 -51 -44 -43 -99 13
-18 19 -18 20 15 54 36 37 50 41 68 20z m-4581 -50 c2 -10 0 -22 -5 -27 -16
-16 -43 2 -43 28 0 20 4 24 22 21 13 -2 24 -11 26 -22z m4456 9 c5 -15 -18
-45 -35 -45 -16 0 -22 29 -9 45 16 19 36 19 44 0z m-4456 -148 c2 -9 -4 -20
-12 -23 -21 -8 -46 13 -39 32 8 20 47 13 51 -9z m4457 4 c0 -8 -8 -19 -17 -25
-22 -13 -44 5 -34 29 7 20 51 16 51 -4z m-4539 -32 c44 -27 44 -55 -1 -118
-38 -52 -80 -75 -108 -59 -19 10 -22 49 -7 79 8 14 7 25 -5 41 -50 73 33 112
121 57z m4701 5 c13 -18 8 -40 -15 -66 -12 -14 -12 -21 -3 -32 19 -22 10 -80
-12 -84 -35 -7 -76 20 -107 69 -41 63 -37 86 20 116 49 26 96 25 117 -3z
m-3477 -53 c0 -5 -31 -72 -69 -148 -73 -146 -96 -196 -104 -228 -3 -11 -13
-40 -22 -65 -18 -46 -31 -117 -66 -350 -11 -74 -22 -140 -24 -146 -2 -8 -15
-8 -47 0 -24 6 -47 14 -53 18 -5 3 -36 9 -69 13 -53 7 -63 12 -111 60 l-53 52
12 44 c7 24 16 53 20 64 4 11 14 36 21 55 109 294 204 442 342 538 18 12 34
22 37 22 3 0 22 10 43 23 71 42 143 66 143 48z m2240 -43 c122 -63 124 -64
185 -119 50 -47 136 -171 177 -259 76 -162 140 -343 132 -375 -4 -17 0 -26 15
-35 25 -13 27 -33 5 -51 -13 -10 -17 -10 -25 2 -5 8 -9 25 -9 39 0 24 -2 23
-40 -17 -30 -31 -51 -43 -83 -48 -55 -9 -117 -25 -144 -37 -40 -19 -50 -5 -57
79 -9 106 -53 351 -75 418 -29 88 -63 169 -106 250 -76 143 -94 179 -95 188 0
17 42 4 120 -35z m-3434 -93 c4 -8 3 -22 0 -31 -6 -15 -8 -15 -26 1 -11 10
-20 24 -20 32 0 18 39 17 46 -2z m4558 6 c3 -4 -6 -18 -19 -31 -22 -20 -25
-21 -31 -6 -3 9 -4 23 0 31 6 16 41 21 50 6z m-3812 -41 c-1 -19 -11 -55 -22
-80 -41 -96 -94 -217 -111 -254 -11 -22 -19 -47 -19 -55 -1 -9 -14 -41 -30
-71 -17 -30 -30 -62 -30 -71 0 -9 -7 -22 -15 -29 -15 -12 -30 -5 -65 30 -15
15 -54 30 -90 36 -22 4 -40 10 -40 15 0 5 -7 9 -15 9 -10 0 -15 -10 -15 -30 0
-33 -11 -38 -30 -15 -11 13 -11 20 0 40 12 23 11 28 -15 55 -28 29 -29 31 -16
80 36 139 102 208 291 301 79 39 189 79 210 76 11 -2 14 -13 12 -37z m3138 3
c19 -8 82 -38 139 -66 114 -57 198 -130 227 -196 9 -20 22 -51 30 -69 20 -47
18 -62 -18 -99 -31 -32 -31 -33 -13 -53 14 -16 15 -22 5 -35 -19 -23 -40 -18
-40 10 0 14 -4 25 -8 25 -29 0 -114 -34 -147 -59 -22 -17 -45 -31 -50 -31 -9
0 -48 80 -110 225 -7 17 -25 57 -40 90 -27 60 -40 91 -89 219 l-27 69 53 -7
c29 -4 69 -14 88 -23z m-3920 -88 c22 -14 40 -30 40 -37 0 -6 -14 -33 -31 -60
-55 -86 -109 -111 -131 -63 -9 21 -8 32 5 60 13 26 14 36 4 42 -7 4 -18 16
-26 26 -12 15 -11 20 4 37 26 29 86 26 135 -5z m4721 4 c9 -18 7 -27 -10 -50
-17 -23 -20 -33 -11 -50 15 -27 9 -70 -12 -83 -26 -16 -66 12 -112 80 l-40 57
40 33 c32 28 47 34 86 34 38 0 50 -4 59 -21z m-4501 -214 c0 -29 -7 -30 -35
-9 -17 13 -18 16 -5 24 26 16 40 11 40 -15z m4190 6 c0 -12 -23 -31 -37 -31
-17 0 -17 37 0 43 14 5 37 -2 37 -12z m-4300 -53 c0 -16 -14 -53 -26 -66 -5
-7 -74 67 -74 78 0 6 15 17 33 25 28 12 34 11 50 -2 9 -9 17 -25 17 -35z
m4453 21 c8 -12 3 -25 -19 -53 -16 -20 -34 -36 -41 -36 -15 0 -26 51 -17 84 5
23 11 27 37 24 16 -2 35 -10 40 -19z m-4353 -164 c18 -22 24 -135 8 -165 -21
-39 -66 -34 -89 10 -11 19 -29 37 -41 40 -32 8 -44 33 -30 64 24 53 123 86
152 51z m4253 4 c35 -18 77 -61 77 -79 0 -22 -20 -40 -45 -40 -16 0 -26 -11
-38 -40 -12 -31 -21 -40 -40 -40 -44 0 -60 31 -55 108 2 38 10 77 17 86 16 19
53 21 84 5z m-4019 -85 c18 -7 21 -39 5 -50 -16 -9 -43 21 -36 40 7 18 9 18
31 10z m3732 -15 c10 -17 -23 -46 -37 -32 -7 7 -9 19 -6 27 7 18 33 21 43 5z
m-3821 -99 c0 -50 -2 -55 -23 -58 -17 -3 -25 2 -29 16 -2 11 -16 25 -29 31
-29 13 -30 25 -3 52 14 14 30 19 52 17 32 -3 32 -3 32 -58z m3959 41 c20 -22
14 -61 -9 -61 -8 0 -19 -9 -25 -21 -7 -13 -19 -19 -33 -17 -19 3 -22 10 -25
52 -2 32 1 52 10 57 23 15 64 10 82 -10z m-3681 -33 c7 -26 1 -38 -19 -38 -17
0 -28 24 -20 45 8 22 33 18 39 -7z m-69 -56 c14 -21 33 -59 42 -86 14 -40 14
-52 4 -72 -21 -39 -50 -41 -81 -6 -24 27 -32 30 -67 25 -34 -5 -42 -2 -51 16
-25 45 8 110 75 149 33 19 50 13 78 -26z m3570 -5 c75 -71 74 -132 -2 -132
-31 0 -48 -7 -69 -27 -33 -32 -55 -35 -74 -12 -27 33 -9 112 43 187 27 38 50
34 102 -16z m-3336 -80 c4 -22 -27 -35 -39 -16 -5 8 -9 20 -9 27 0 20 44 10
48 -11z m3039 7 c5 -15 -26 -46 -38 -39 -5 4 -9 17 -9 31 0 20 4 25 22 22 12
-2 23 -8 25 -14z m-2862 -34 c0 -13 -5 -25 -12 -27 -13 -5 -27 32 -18 47 11
18 30 5 30 -20z m2675 0 c0 -24 -26 -38 -42 -22 -16 16 -2 42 22 42 13 0 20
-7 20 -20z m-2882 -32 c16 -16 15 -60 -2 -83 -14 -19 -15 -19 -40 8 -14 15
-30 27 -36 27 -18 0 -11 28 12 44 27 19 50 20 66 4z m3106 2 c14 -5 26 -17 26
-26 0 -18 -50 -74 -66 -74 -23 0 -30 43 -14 84 11 29 17 31 54 16z m-2766 -17
c-4 -22 -22 -20 -26 1 -2 10 3 16 13 16 10 0 15 -7 13 -17z m2396 9 c2 -4 1
-14 -4 -22 -7 -11 -12 -12 -21 -3 -6 6 -8 16 -5 22 8 13 23 14 30 3z m180 -35
c8 -12 8 -22 -2 -37 -6 -11 -12 -33 -12 -49 0 -16 -7 -34 -15 -41 -12 -10 -20
-7 -42 17 -16 17 -33 44 -39 61 -11 28 -9 34 11 56 18 20 28 23 55 17 18 -3
38 -14 44 -24z m-2671 2 c13 -18 13 -24 -1 -52 -22 -48 -42 -67 -69 -67 -20 0
-23 5 -23 34 0 18 -7 39 -15 46 -35 29 -8 60 51 60 32 0 47 -5 57 -21z m285
-47 c4 -55 -18 -66 -58 -27 -40 38 -24 78 30 73 22 -3 25 -8 28 -46z m2068 17
c16 -17 16 -22 4 -29 -8 -6 -18 -10 -21 -10 -4 0 -9 -9 -12 -20 -7 -29 -36
-25 -48 7 -23 60 34 99 77 52z m-2256 -95 c0 -8 -7 -14 -15 -14 -15 0 -21 21
-9 33 10 9 24 -2 24 -19z m2396 5 c10 -17 -13 -36 -27 -22 -12 12 -4 33 11 33
5 0 12 -5 16 -11z"></path>
<path d="M2147 1783 c-11 -10 -8 -43 3 -43 6 0 10 11 10 25 0 26 -2 29 -13 18z"></path>
<path d="M4920 1766 c0 -14 5 -26 10 -26 6 0 10 9 10 19 0 11 -4 23 -10 26 -6
4 -10 -5 -10 -19z"></path>
<path d="M3091 4534 c0 -11 3 -14 6 -6 3 7 2 16 -1 19 -3 4 -6 -2 -5 -13z"></path>
<path d="M3122 3750 c0 -14 2 -19 5 -12 2 6 2 18 0 25 -3 6 -5 1 -5 -13z"></path>
<path d="M3140 3680 c0 -11 5 -20 10 -20 6 0 10 9 10 20 0 11 -4 20 -10 20 -5
0 -10 -9 -10 -20z"></path>
<path d="M3170 3610 c0 -11 5 -20 10 -20 6 0 10 9 10 20 0 11 -4 20 -10 20 -5
0 -10 -9 -10 -20z"></path>
<path d="M3920 3584 c0 -8 5 -12 10 -9 6 3 10 10 10 16 0 5 -4 9 -10 9 -5 0
-10 -7 -10 -16z"></path>
<path d="M3190 3566 c0 -7 7 -19 15 -26 8 -7 15 -18 15 -25 0 -13 29 -74 40
-85 3 -3 15 -25 28 -50 26 -52 31 -59 92 -155 25 -38 48 -78 52 -87 9 -21 28
-24 28 -5 0 16 -29 74 -58 114 -12 17 -22 33 -22 36 0 3 -16 29 -36 58 -20 30
-40 63 -45 74 -10 21 -31 57 -39 65 -3 3 -15 26 -28 53 -23 46 -42 61 -42 33z"></path>
<path d="M3896 3541 c-4 -7 -5 -15 -2 -18 9 -9 19 4 14 18 -4 11 -6 11 -12 0z"></path>
<path d="M3871 3484 c0 -11 3 -14 6 -6 3 7 2 16 -1 19 -3 4 -6 -2 -5 -13z"></path>
<path d="M3840 3445 c0 -8 5 -15 10 -15 6 0 10 7 10 15 0 8 -4 15 -10 15 -5 0
-10 -7 -10 -15z"></path>
<path d="M3776 3353 c-27 -37 -54 -72 -60 -78 -27 -24 -116 -156 -116 -172 0
-2 9 2 20 10 20 14 160 201 160 215 0 4 12 20 26 35 14 15 24 35 22 43 -2 10
-22 -10 -52 -53z"></path>
</g>
</svg>